<svg width="201" height="25" viewBox="0 0 201 25" fill="none" xmlns="http://www.w3.org/2000/svg">
<path d="M27.608 1.34351V1.98351C26.9253 2.00484 26.4133 2.09018 26.072 2.23951C25.7307 2.36751 25.496 2.62351 25.368 3.00751C25.2613 3.37018 25.208 3.94618 25.208 4.73551V20.6075C25.208 21.3755 25.2613 21.9515 25.368 22.3355C25.496 22.7195 25.7307 22.9755 26.072 23.1035C26.4133 23.2315 26.9253 23.3168 27.608 23.3595V23.9995C27.0107 23.9568 26.2533 23.9355 25.336 23.9355C24.44 23.9142 23.5227 23.9035 22.584 23.9035C21.56 23.9035 20.6 23.9142 19.704 23.9355C18.808 23.9355 18.0827 23.9568 17.528 23.9995V23.3595C18.2533 23.3168 18.7973 23.2315 19.16 23.1035C19.544 22.9755 19.8 22.7195 19.928 22.3355C20.056 21.9515 20.12 21.3755 20.12 20.6075V3.29551H20.344L12.408 24.0315H11.896L3.256 3.42351V18.7515C3.256 19.9248 3.32 20.8315 3.448 21.4715C3.576 22.0902 3.85333 22.5382 4.28 22.8155C4.728 23.0715 5.42133 23.2528 6.36 23.3595V23.9995C5.95467 23.9568 5.42133 23.9355 4.76 23.9355C4.09867 23.9142 3.48 23.9035 2.904 23.9035C2.41333 23.9035 1.912 23.9142 1.4 23.9355C0.888 23.9355 0.461333 23.9568 0.12 23.9995V23.3595C0.802667 23.2528 1.31467 23.0715 1.656 22.8155C1.99733 22.5595 2.22133 22.1435 2.328 21.5675C2.456 20.9702 2.52 20.1595 2.52 19.1355V4.73551C2.52 3.94618 2.456 3.37018 2.328 3.00751C2.22133 2.62351 1.98667 2.36751 1.624 2.23951C1.28267 2.09018 0.781333 2.00484 0.12 1.98351V1.34351C0.461333 1.36484 0.888 1.38618 1.4 1.40751C1.912 1.42884 2.41333 1.43951 2.904 1.43951C3.82133 1.43951 4.71733 1.42884 5.592 1.40751C6.488 1.38618 7.27733 1.36484 7.96 1.34351L14.68 17.5675L13.88 18.3035L20.312 1.43951C20.6747 1.43951 21.048 1.43951 21.432 1.43951C21.816 1.43951 22.2 1.43951 22.584 1.43951C23.5227 1.43951 24.44 1.42884 25.336 1.40751C26.2533 1.38618 27.0107 1.36484 27.608 1.34351ZM40.4323 1.27951L48.2083 21.3115C48.5069 22.0795 48.8376 22.6128 49.2003 22.9115C49.5843 23.1888 49.9256 23.3382 50.2243 23.3595V23.9995C49.5843 23.9568 48.8269 23.9355 47.9523 23.9355C47.0989 23.9142 46.2349 23.9035 45.3603 23.9035C44.3789 23.9035 43.4509 23.9142 42.5763 23.9355C41.7016 23.9355 41.0083 23.9568 40.4963 23.9995V23.3595C41.5843 23.3168 42.2669 23.1355 42.5443 22.8155C42.8429 22.4742 42.7789 21.7595 42.3523 20.6715L36.9123 5.79151L37.4883 4.95951L32.6243 17.6315C32.1549 18.8048 31.8669 19.7648 31.7603 20.5115C31.6749 21.2582 31.7283 21.8342 31.9203 22.2395C32.1336 22.6448 32.4643 22.9328 32.9123 23.1035C33.3816 23.2528 33.9363 23.3382 34.5763 23.3595V23.9995C33.8723 23.9568 33.2003 23.9355 32.5603 23.9355C31.9203 23.9142 31.2696 23.9035 30.6083 23.9035C30.1389 23.9035 29.6909 23.9142 29.2643 23.9355C28.8589 23.9355 28.4962 23.9568 28.1762 23.9995V23.3595C28.6242 23.2742 29.0829 22.9862 29.5523 22.4955C30.0216 22.0048 30.4803 21.1728 30.9283 19.9995L38.2243 1.27951C38.5656 1.30084 38.9283 1.31151 39.3123 1.31151C39.7176 1.31151 40.0909 1.30084 40.4323 1.27951ZM42.6723 14.7835V15.4235H33.1363L33.4563 14.7835H42.6723ZM60.351 1.34351C64.5537 1.34351 67.679 2.30351 69.727 4.22351C71.775 6.12218 72.799 8.85284 72.799 12.4155C72.799 14.7408 72.2977 16.7782 71.295 18.5275C70.2923 20.2555 68.831 21.5995 66.911 22.5595C65.0123 23.5195 62.7297 23.9995 60.063 23.9995C59.7217 23.9995 59.2737 23.9888 58.719 23.9675C58.1643 23.9462 57.5883 23.9355 56.991 23.9355C56.3937 23.9142 55.8603 23.9035 55.391 23.9035C54.4523 23.9035 53.5243 23.9142 52.607 23.9355C51.711 23.9355 50.9963 23.9568 50.463 23.9995V23.3595C51.1457 23.3168 51.6577 23.2315 51.999 23.1035C52.3403 22.9755 52.5643 22.7195 52.671 22.3355C52.799 21.9515 52.863 21.3755 52.863 20.6075V4.73551C52.863 3.94618 52.799 3.37018 52.671 3.00751C52.5643 2.62351 52.3297 2.36751 51.967 2.23951C51.6257 2.09018 51.1243 2.00484 50.463 1.98351V1.34351C50.9963 1.36484 51.711 1.39684 52.607 1.43951C53.5243 1.46084 54.431 1.46084 55.327 1.43951C56.095 1.41818 56.959 1.39684 57.919 1.37551C58.9003 1.35418 59.711 1.34351 60.351 1.34351ZM60.319 1.91951C59.3377 1.91951 58.6977 2.10084 58.399 2.46351C58.1003 2.82618 57.951 3.56218 57.951 4.67151V20.6715C57.951 21.7808 58.1003 22.5168 58.399 22.8795C58.719 23.2422 59.3697 23.4235 60.351 23.4235C62.143 23.4235 63.551 23.0075 64.575 22.1755C65.6203 21.3222 66.367 20.0848 66.815 18.4635C67.263 16.8422 67.487 14.8688 67.487 12.5435C67.487 10.1542 67.2417 8.18084 66.751 6.62351C66.2817 5.04484 65.5243 3.87151 64.479 3.10351C63.4337 2.31418 62.047 1.91951 60.319 1.91951ZM92.1455 1.34351C92.0602 2.28218 91.9962 3.18884 91.9535 4.06351C91.9322 4.93818 91.9215 5.61018 91.9215 6.07951C91.9215 6.50618 91.9322 6.91151 91.9535 7.29551C91.9748 7.67951 91.9962 7.99951 92.0175 8.25551H91.2815C91.0682 6.69818 90.7375 5.47151 90.2895 4.57551C89.8415 3.65818 89.2548 3.01818 88.5295 2.65551C87.8255 2.27151 86.9935 2.07951 86.0335 2.07951H84.7215C84.1028 2.07951 83.6335 2.13284 83.3135 2.23951C82.9935 2.34618 82.7802 2.55951 82.6735 2.87951C82.5668 3.19951 82.5135 3.69018 82.5135 4.35151V20.9915C82.5135 21.6528 82.5668 22.1435 82.6735 22.4635C82.7802 22.7835 82.9935 22.9968 83.3135 23.1035C83.6335 23.2102 84.1028 23.2635 84.7215 23.2635H86.2895C87.2495 23.2635 88.0922 23.0608 88.8175 22.6555C89.5642 22.2288 90.1935 21.5142 90.7055 20.5115C91.2388 19.5088 91.6442 18.1542 91.9215 16.4475H92.6575C92.5935 17.1302 92.5615 18.0262 92.5615 19.1355C92.5615 19.6262 92.5722 20.3195 92.5935 21.2155C92.6148 22.1115 92.6788 23.0395 92.7855 23.9995C91.6975 23.9568 90.4708 23.9355 89.1055 23.9355C87.7402 23.9142 86.5242 23.9035 85.4575 23.9035C84.9242 23.9035 84.2415 23.9035 83.4095 23.9035C82.5775 23.9035 81.6815 23.9142 80.7215 23.9355C79.7615 23.9355 78.7908 23.9462 77.8095 23.9675C76.8282 23.9675 75.9002 23.9782 75.0255 23.9995V23.3595C75.7082 23.3168 76.2202 23.2315 76.5615 23.1035C76.9028 22.9755 77.1268 22.7195 77.2335 22.3355C77.3615 21.9515 77.4255 21.3755 77.4255 20.6075V4.73551C77.4255 3.94618 77.3615 3.37018 77.2335 3.00751C77.1268 2.62351 76.8922 2.36751 76.5295 2.23951C76.1882 2.09018 75.6868 2.00484 75.0255 1.98351V1.34351C75.9002 1.36484 76.8282 1.38618 77.8095 1.40751C78.7908 1.40751 79.7615 1.41818 80.7215 1.43951C81.6815 1.43951 82.5775 1.43951 83.4095 1.43951C84.2415 1.43951 84.9242 1.43951 85.4575 1.43951C86.4388 1.43951 87.5482 1.43951 88.7855 1.43951C90.0442 1.41818 91.1642 1.38618 92.1455 1.34351ZM87.1535 12.2875C87.1535 12.2875 87.1535 12.3942 87.1535 12.6075C87.1535 12.8208 87.1535 12.9275 87.1535 12.9275H81.5535C81.5535 12.9275 81.5535 12.8208 81.5535 12.6075C81.5535 12.3942 81.5535 12.2875 81.5535 12.2875H87.1535ZM88.0815 8.06351C87.9962 9.27951 87.9535 10.2075 87.9535 10.8475C87.9748 11.4875 87.9855 12.0742 87.9855 12.6075C87.9855 13.1408 87.9962 13.7275 88.0175 14.3675C88.0388 15.0075 88.0922 15.9355 88.1775 17.1515H87.4415C87.3348 16.4048 87.1322 15.7115 86.8335 15.0715C86.5562 14.4315 86.1508 13.9195 85.6175 13.5355C85.0842 13.1302 84.3908 12.9275 83.5375 12.9275V12.2875C84.1775 12.2875 84.7215 12.1595 85.1695 11.9035C85.6175 11.6262 85.9802 11.2742 86.2575 10.8475C86.5562 10.3995 86.7908 9.93018 86.9615 9.43951C87.1322 8.94884 87.2602 8.49018 87.3455 8.06351H88.0815ZM103.307 0.927511C104.565 0.927511 105.536 1.06618 106.219 1.34351C106.901 1.59951 107.488 1.87684 107.979 2.17551C108.235 2.32484 108.437 2.44218 108.587 2.52751C108.757 2.59151 108.917 2.62351 109.067 2.62351C109.28 2.62351 109.429 2.50618 109.515 2.27151C109.621 2.03684 109.707 1.68484 109.771 1.21551H110.507C110.485 1.62084 110.453 2.11151 110.411 2.68751C110.389 3.24218 110.368 3.97818 110.347 4.89551C110.347 5.81284 110.347 7.01818 110.347 8.51151H109.611C109.525 7.40218 109.269 6.32484 108.843 5.27951C108.416 4.23418 107.808 3.38084 107.019 2.71951C106.251 2.03684 105.301 1.69551 104.171 1.69551C103.147 1.69551 102.304 1.98351 101.643 2.55951C100.981 3.13551 100.651 3.93551 100.651 4.95951C100.651 5.81284 100.864 6.54884 101.291 7.16751C101.717 7.76484 102.336 8.35151 103.147 8.92751C103.979 9.50351 104.981 10.1968 106.155 11.0075C107.179 11.6688 108.096 12.3302 108.907 12.9915C109.717 13.6528 110.368 14.3995 110.859 15.2315C111.349 16.0635 111.595 17.0555 111.595 18.2075C111.595 19.6155 111.221 20.7782 110.475 21.6955C109.749 22.6128 108.789 23.3062 107.595 23.7755C106.4 24.2235 105.088 24.4475 103.659 24.4475C102.336 24.4475 101.28 24.3195 100.491 24.0635C99.7014 23.8075 99.0401 23.5408 98.5068 23.2635C98.0374 22.9648 97.6748 22.8155 97.4188 22.8155C97.2054 22.8155 97.0454 22.9328 96.9388 23.1675C96.8534 23.4022 96.7788 23.7542 96.7148 24.2235H95.9788C96.0214 23.7115 96.0428 23.1142 96.0428 22.4315C96.0641 21.7488 96.0748 20.8635 96.0748 19.7755C96.0961 18.6662 96.1068 17.2688 96.1068 15.5835H96.8428C96.9281 16.9915 97.1628 18.3142 97.5468 19.5515C97.9521 20.7675 98.5601 21.7488 99.3708 22.4955C100.203 23.2422 101.301 23.6155 102.667 23.6155C103.413 23.6155 104.075 23.4875 104.651 23.2315C105.248 22.9542 105.728 22.5488 106.091 22.0155C106.453 21.4822 106.635 20.8208 106.635 20.0315C106.635 19.1355 106.421 18.3568 105.995 17.6955C105.589 17.0342 105.024 16.4155 104.299 15.8395C103.595 15.2635 102.773 14.6768 101.835 14.0795C100.832 13.4182 99.8934 12.7568 99.0188 12.0955C98.1441 11.4342 97.4401 10.6768 96.9068 9.82351C96.3948 8.97018 96.1388 7.95684 96.1388 6.78351C96.1388 5.43951 96.4694 4.34084 97.1308 3.48751C97.8134 2.61284 98.6988 1.97284 99.7868 1.56751C100.896 1.14084 102.069 0.927511 103.307 0.927511ZM127.562 23.9995V23.3595C128.245 23.3168 128.757 23.2315 129.098 23.1035C129.44 22.9755 129.664 22.7195 129.77 22.3355C129.898 21.9515 129.962 21.3755 129.962 20.6075V4.73551C129.962 3.94618 129.898 3.37018 129.77 3.00751C129.664 2.62351 129.429 2.36751 129.066 2.23951C128.725 2.09018 128.224 2.00484 127.562 1.98351V1.34351C128.138 1.36484 128.885 1.38618 129.802 1.40751C130.741 1.42884 131.669 1.43951 132.586 1.43951C133.568 1.43951 134.485 1.42884 135.338 1.40751C136.213 1.38618 136.917 1.36484 137.45 1.34351V1.98351C136.768 2.00484 136.245 2.09018 135.882 2.23951C135.541 2.36751 135.317 2.62351 135.21 3.00751C135.104 3.37018 135.05 3.94618 135.05 4.73551V20.6075C135.05 21.3755 135.104 21.9515 135.21 22.3355C135.338 22.7195 135.573 22.9755 135.914 23.1035C136.256 23.2315 136.768 23.3168 137.45 23.3595V23.9995C136.917 23.9568 136.213 23.9355 135.338 23.9355C134.485 23.9142 133.568 23.9035 132.586 23.9035C131.669 23.9035 130.741 23.9142 129.802 23.9355C128.885 23.9355 128.138 23.9568 127.562 23.9995ZM113.994 23.9995V23.3595C114.677 23.3168 115.189 23.2315 115.53 23.1035C115.872 22.9755 116.096 22.7195 116.202 22.3355C116.33 21.9515 116.394 21.3755 116.394 20.6075V4.73551C116.394 3.94618 116.33 3.37018 116.202 3.00751C116.096 2.62351 115.861 2.36751 115.498 2.23951C115.157 2.09018 114.656 2.00484 113.994 1.98351V1.34351C114.549 1.36484 115.264 1.38618 116.138 1.40751C117.034 1.42884 118.005 1.43951 119.05 1.43951C119.946 1.43951 120.832 1.42884 121.706 1.40751C122.581 1.38618 123.306 1.36484 123.882 1.34351V1.98351C123.2 2.00484 122.677 2.09018 122.314 2.23951C121.973 2.36751 121.749 2.62351 121.642 3.00751C121.536 3.37018 121.482 3.94618 121.482 4.73551V20.6075C121.482 21.3755 121.536 21.9515 121.642 22.3355C121.77 22.7195 122.005 22.9755 122.346 23.1035C122.688 23.2315 123.2 23.3168 123.882 23.3595V23.9995C123.306 23.9568 122.581 23.9355 121.706 23.9355C120.832 23.9142 119.946 23.9035 119.05 23.9035C118.005 23.9035 117.034 23.9142 116.138 23.9355C115.264 23.9355 114.549 23.9568 113.994 23.9995ZM119.402 12.9275V12.2875H132.042V12.9275H119.402ZM160.548 1.34351V1.95151C159.865 2.10084 159.129 2.39951 158.34 2.84751C157.572 3.29551 156.761 4.02084 155.908 5.02351L149.892 12.1915L151.748 9.53551L159.364 21.4075C159.663 21.8982 159.983 22.2928 160.324 22.5915C160.665 22.8902 161.113 23.1462 161.668 23.3595V23.9995C160.921 23.9568 160.089 23.9355 159.172 23.9355C158.255 23.9142 157.423 23.9035 156.676 23.9035C156.228 23.9035 155.684 23.9142 155.044 23.9355C154.404 23.9355 153.593 23.9568 152.612 23.9995V23.3595C153.487 23.3168 154.009 23.1995 154.18 23.0075C154.372 22.7942 154.297 22.4315 153.956 21.9195L149.316 14.3995C149.017 13.9088 148.751 13.5462 148.516 13.3115C148.281 13.0555 148.047 12.8848 147.812 12.7995C147.577 12.6928 147.268 12.6288 146.884 12.6075V11.9355C147.823 11.9142 148.655 11.6582 149.38 11.1675C150.127 10.6768 150.937 9.93018 151.812 8.92751L153.7 6.65551C154.511 5.69551 154.98 4.87418 155.108 4.19151C155.257 3.48751 155.119 2.94351 154.692 2.55951C154.287 2.17551 153.657 1.97284 152.804 1.95151V1.34351C153.337 1.36484 153.839 1.38618 154.308 1.40751C154.799 1.40751 155.3 1.41818 155.812 1.43951C156.345 1.43951 156.921 1.43951 157.54 1.43951C158.159 1.43951 158.713 1.42884 159.204 1.40751C159.716 1.38618 160.164 1.36484 160.548 1.34351ZM149.476 1.34351V1.98351C148.793 2.00484 148.271 2.09018 147.908 2.23951C147.567 2.36751 147.343 2.62351 147.236 3.00751C147.129 3.37018 147.076 3.94618 147.076 4.73551V20.6075C147.076 21.3755 147.129 21.9515 147.236 22.3355C147.364 22.7195 147.599 22.9755 147.94 23.1035C148.281 23.2315 148.793 23.3168 149.476 23.3595V23.9995C148.9 23.9568 148.175 23.9355 147.3 23.9355C146.425 23.9142 145.54 23.9035 144.644 23.9035C143.62 23.9035 142.649 23.9142 141.732 23.9355C140.836 23.9355 140.121 23.9568 139.588 23.9995V23.3595C140.271 23.3168 140.783 23.2315 141.124 23.1035C141.465 22.9755 141.689 22.7195 141.796 22.3355C141.924 21.9515 141.988 21.3755 141.988 20.6075V4.73551C141.988 3.94618 141.924 3.37018 141.796 3.00751C141.689 2.62351 141.455 2.36751 141.092 2.23951C140.751 2.09018 140.249 2.00484 139.588 1.98351V1.34351C140.121 1.36484 140.836 1.38618 141.732 1.40751C142.649 1.42884 143.62 1.43951 144.644 1.43951C145.54 1.43951 146.425 1.42884 147.3 1.40751C148.175 1.38618 148.9 1.36484 149.476 1.34351ZM173.12 1.27951L180.896 21.3115C181.194 22.0795 181.525 22.6128 181.888 22.9115C182.272 23.1888 182.613 23.3382 182.912 23.3595V23.9995C182.272 23.9568 181.514 23.9355 180.64 23.9355C179.786 23.9142 178.922 23.9035 178.048 23.9035C177.066 23.9035 176.138 23.9142 175.264 23.9355C174.389 23.9355 173.696 23.9568 173.184 23.9995V23.3595C174.272 23.3168 174.954 23.1355 175.232 22.8155C175.53 22.4742 175.466 21.7595 175.04 20.6715L169.6 5.79151L170.176 4.95951L165.312 17.6315C164.842 18.8048 164.554 19.7648 164.448 20.5115C164.362 21.2582 164.416 21.8342 164.608 22.2395C164.821 22.6448 165.152 22.9328 165.6 23.1035C166.069 23.2528 166.624 23.3382 167.264 23.3595V23.9995C166.56 23.9568 165.888 23.9355 165.248 23.9355C164.608 23.9142 163.957 23.9035 163.296 23.9035C162.826 23.9035 162.378 23.9142 161.952 23.9355C161.546 23.9355 161.184 23.9568 160.864 23.9995V23.3595C161.312 23.2742 161.77 22.9862 162.24 22.4955C162.709 22.0048 163.168 21.1728 163.616 19.9995L170.912 1.27951C171.253 1.30084 171.616 1.31151 172 1.31151C172.405 1.31151 172.778 1.30084 173.12 1.27951ZM175.36 14.7835V15.4235H165.824L166.144 14.7835H175.36ZM200.271 1.34351C200.185 2.30351 200.121 3.23151 200.079 4.12751C200.057 5.02351 200.047 5.71684 200.047 6.20751C200.047 6.67684 200.057 7.12484 200.079 7.55151C200.1 7.97818 200.121 8.34084 200.142 8.63951H199.407C199.129 6.97551 198.745 5.67418 198.255 4.73551C197.764 3.77551 197.156 3.09284 196.431 2.68751C195.727 2.28218 194.884 2.07951 193.903 2.07951H192.847C192.228 2.07951 191.759 2.13284 191.439 2.23951C191.119 2.34618 190.905 2.55951 190.799 2.87951C190.692 3.19951 190.639 3.69018 190.639 4.35151V20.4155C190.639 21.2475 190.724 21.8662 190.895 22.2715C191.065 22.6768 191.396 22.9435 191.887 23.0715C192.377 23.1995 193.103 23.2742 194.063 23.2955V23.9995C193.401 23.9782 192.548 23.9568 191.503 23.9355C190.457 23.9142 189.359 23.9035 188.207 23.9035C187.289 23.9035 186.393 23.9142 185.519 23.9355C184.644 23.9568 183.855 23.9782 183.151 23.9995V23.3595C183.833 23.3168 184.345 23.2315 184.687 23.1035C185.028 22.9755 185.252 22.7195 185.359 22.3355C185.487 21.9515 185.551 21.3755 185.551 20.6075V4.73551C185.551 3.94618 185.487 3.37018 185.359 3.00751C185.252 2.62351 185.017 2.36751 184.655 2.23951C184.313 2.09018 183.812 2.00484 183.151 1.98351V1.34351C184.025 1.36484 184.953 1.38618 185.935 1.40751C186.916 1.40751 187.887 1.41818 188.847 1.43951C189.807 1.43951 190.703 1.43951 191.535 1.43951C192.367 1.43951 193.049 1.43951 193.583 1.43951C194.564 1.43951 195.673 1.43951 196.911 1.43951C198.169 1.41818 199.289 1.38618 200.271 1.34351ZM195.503 12.4155C195.503 12.4155 195.503 12.5222 195.503 12.7355C195.503 12.9488 195.503 13.0555 195.503 13.0555H189.679C189.679 13.0555 189.679 12.9488 189.679 12.7355C189.679 12.5222 189.679 12.4155 189.679 12.4155H195.503ZM196.303 8.19151C196.217 9.40751 196.175 10.3355 196.175 10.9755C196.196 11.6155 196.207 12.2022 196.207 12.7355C196.207 13.2688 196.217 13.8555 196.239 14.4955C196.26 15.1355 196.313 16.0635 196.399 17.2795H195.663C195.535 16.5328 195.332 15.8395 195.055 15.1995C194.777 14.5595 194.372 14.0475 193.839 13.6635C193.305 13.2582 192.612 13.0555 191.759 13.0555V12.4155C192.399 12.4155 192.932 12.2875 193.359 12.0315C193.807 11.7542 194.18 11.4022 194.479 10.9755C194.777 10.5275 195.012 10.0582 195.183 9.56751C195.353 9.07684 195.481 8.61818 195.567 8.19151H196.303Z" fill="white"/>
</svg>
